<svg width="32" height="32" viewBox="0 0 32 32" fill="none" xmlns="http://www.w3.org/2000/svg">
<g clip-path="url(#clip0_148_4)">
<rect width="32" height="32" rx="8" fill="#106FFF"/>
<path d="M13.0752 16.2812H10.1299C10.0622 16.2812 10.0283 16.2474 10.0283 16.1797V13.2344C10.0283 13.1667 10.0622 13.1328 10.1299 13.1328H13.0752C13.1429 13.1328 13.1768 13.1667 13.1768 13.2344V16.1797C13.1768 16.2474 13.1429 16.2812 13.0752 16.2812ZM13.0752 24H10.1299C10.0622 24 10.0283 23.9661 10.0283 23.8984V20.9531C10.0283 20.8854 10.0622 20.8516 10.1299 20.8516H13.0752C13.1429 20.8516 13.1768 20.8854 13.1768 20.9531V23.8984C13.1768 23.9661 13.1429 24 13.0752 24ZM21.5811 24.2539H20.1719C19.2832 24.2201 18.4622 23.9661 17.709 23.4922C16.9642 23.0182 16.3633 22.3919 15.9062 21.6133C15.4577 20.8262 15.2334 19.9671 15.2334 19.0361L15.2588 10.7969C15.2588 9.87435 15.4788 9.02799 15.9189 8.25781C16.359 7.48763 16.9515 6.86556 17.6963 6.3916C18.4495 5.90918 19.2747 5.65104 20.1719 5.61719H21.6318C21.7165 5.61719 21.7588 5.65104 21.7588 5.71875V8.66406C21.7588 8.73177 21.7165 8.76562 21.6318 8.76562H20.1465C19.6471 8.76562 19.224 8.96452 18.877 9.3623C18.5299 9.76009 18.3564 10.2383 18.3564 10.7969V19.0361C18.3564 19.5693 18.5342 20.0391 18.8896 20.4453C19.2451 20.8431 19.6641 21.0674 20.1465 21.1182H21.5557C21.6403 21.1182 21.6826 21.152 21.6826 21.2197L21.708 24.1523C21.708 24.2201 21.6657 24.2539 21.5811 24.2539Z" fill="#FFEAEA"/>
</g>
<defs>
<clipPath id="clip0_148_4">
<rect width="32" height="32" fill="white"/>
</clipPath>
</defs>
</svg>
